<?xml version="1.0" standalone="no"?>
<!DOCTYPE svg PUBLIC "-//W3C//DTD SVG 20010904//EN"
 "http://www.w3.org/TR/2001/REC-SVG-20010904/DTD/svg10.dtd">
<svg version="1.0" xmlns="http://www.w3.org/2000/svg"
 width="1175.000000pt" height="388.000000pt" viewBox="0 0 1175.000000 388.000000"
 preserveAspectRatio="xMidYMid meet">
<metadata>
Created by potrace 1.16, written by Peter Selinger 2001-2019
</metadata>
<g transform="translate(0.000000,388.000000) scale(0.100000,-0.100000)"
fill="#000000" stroke="none">
<path d="M7017 3523 c-4 -3 -7 -68 -7 -143 0 -165 -7 -230 -26 -230 -11 0 -14
29 -14 141 0 108 -3 140 -12 137 -16 -6 -26 -89 -29 -223 -1 -82 -4 -95 -13
-75 -6 14 -15 29 -21 33 -7 6 -6 10 3 14 14 6 16 33 2 33 -14 0 -12 27 3 33 9
4 8 8 -3 17 -11 9 -12 13 -2 17 14 6 16 33 2 33 -14 0 -12 28 2 32 9 3 8 10
-5 22 -10 10 -21 15 -24 12 -11 -11 -21 -114 -22 -223 -1 -62 -5 -103 -11
-103 -6 0 -10 37 -10 90 0 72 -3 92 -15 97 -9 3 -19 2 -23 -1 -3 -4 -9 -72
-13 -152 -4 -80 -9 -148 -13 -151 -3 -4 -6 3 -6 15 0 13 -6 22 -15 22 -8 0
-15 -9 -15 -20 0 -11 -4 -20 -10 -20 -5 0 -10 -7 -10 -15 0 -8 -4 -15 -10 -15
-6 0 -10 32 -10 75 0 68 -2 75 -20 75 -15 0 -20 7 -20 25 0 16 -6 25 -15 25
-8 0 -15 9 -15 19 0 28 -11 51 -24 51 -6 0 -11 16 -11 37 0 20 -6 38 -12 40
-7 3 -13 -3 -13 -12 0 -19 -23 -45 -39 -45 -6 0 -11 -11 -11 -25 0 -14 -4 -25
-9 -25 -5 0 -12 -12 -14 -27 -2 -16 -5 54 -6 155 -1 175 -2 182 -21 182 -18 0
-20 -7 -20 -65 0 -36 -4 -65 -8 -65 -4 0 -20 6 -35 13 -21 9 -27 19 -27 44 0
35 -17 53 -31 32 -5 -8 -9 -56 -9 -106 0 -101 -15 -126 -22 -38 -5 61 -10 70
-33 62 -12 -5 -15 -24 -15 -92 0 -47 -4 -85 -9 -85 -5 0 -12 36 -16 80 -4 44
-10 80 -14 80 -25 -1 -31 -22 -32 -113 -1 -76 -4 -97 -15 -97 -11 0 -14 29
-14 150 0 83 -4 150 -9 150 -15 0 -21 -60 -21 -226 0 -103 -4 -164 -10 -164
-5 0 -10 -10 -10 -22 0 -13 -4 -30 -9 -37 -11 -17 -19 8 -23 74 -2 29 -8 41
-20 43 -13 3 -18 -3 -18 -22 0 -14 -4 -26 -10 -26 -5 0 -10 16 -10 35 0 19 5
35 10 35 6 0 10 11 10 24 0 26 -29 44 -40 25 -6 -8 -9 -8 -11 0 -3 8 -14 8
-37 2 l-32 -10 0 89 c0 65 -4 92 -15 104 -9 8 -15 33 -15 56 0 34 -3 41 -16
36 -9 -3 -18 -6 -20 -6 -2 0 -4 -46 -5 -102 0 -72 -3 -96 -9 -80 -5 12 -14 22
-20 22 -5 0 -10 18 -10 41 0 32 -3 40 -15 35 -10 -4 -15 1 -15 14 0 13 -7 20
-20 20 -11 0 -20 -4 -20 -9 0 -5 -9 -11 -20 -14 -19 -5 -20 -14 -20 -126 0
-101 -2 -121 -15 -121 -12 0 -15 16 -15 86 0 76 -2 85 -17 82 -20 -4 -20 -3
-22 -120 -1 -51 -5 -88 -11 -88 -6 0 -10 35 -10 85 0 50 -4 85 -10 85 -6 0
-10 33 -10 80 0 64 -3 80 -15 80 -13 0 -15 -25 -17 -157 0 -87 -2 -162 -3
-168 -2 -5 -3 -34 -4 -62 -1 -42 -4 -53 -17 -53 -12 0 -15 -7 -12 -30 3 -20 0
-30 -9 -30 -10 0 -13 28 -13 125 0 118 -1 125 -20 125 -16 0 -20 -7 -21 -37
-1 -21 -5 -51 -9 -68 l-8 -30 -1 29 c-1 25 -4 28 -27 23 -25 -4 -26 -3 -23 42
5 103 0 161 -16 161 -12 0 -15 -17 -15 -90 0 -83 -1 -90 -20 -90 -19 0 -20 7
-20 90 0 73 -3 90 -15 90 -8 0 -15 -4 -15 -10 0 -5 -7 -7 -15 -4 -11 5 -15 21
-15 60 0 47 -2 54 -20 54 -16 0 -20 -7 -20 -35 0 -24 -6 -37 -20 -45 -19 -10
-20 -8 -20 70 0 72 -2 81 -17 78 -16 -3 -19 -21 -23 -163 -3 -88 -7 -125 -8
-82 -2 92 -20 103 -25 15 -3 -54 -3 -51 -5 25 -2 80 -4 87 -22 87 -19 0 -20 7
-20 105 0 58 -4 105 -9 105 -11 0 -21 -127 -21 -275 0 -103 -3 -124 -16 -129
-14 -5 -16 6 -12 96 3 100 2 103 -19 106 l-23 3 0 -183 c0 -101 -5 -190 -10
-198 -8 -12 -10 -11 -10 8 0 49 -49 11 -67 -52 l-11 -41 -1 35 c-2 55 -12 80
-31 80 -11 0 -20 -9 -23 -22 -2 -13 -5 24 -6 82 -1 99 -9 130 -32 130 -4 0 -8
-24 -8 -52 -1 -29 -5 -78 -10 -108 -8 -54 -9 -54 -10 -13 0 23 -5 43 -11 45
-5 2 -11 32 -14 67 -4 61 -14 80 -43 81 -8 0 -13 -13 -13 -30 0 -23 -4 -30
-20 -30 -18 0 -20 7 -20 64 0 36 -3 67 -7 69 -5 3 -23 2 -40 0 -31 -5 -33 -8
-33 -44 0 -28 -4 -39 -15 -39 -12 0 -15 -14 -16 -67 0 -38 -4 -77 -8 -88 -11
-28 -21 81 -21 232 0 113 -2 124 -17 121 -16 -3 -18 -23 -21 -221 -1 -139 -6
-216 -12 -212 -6 3 -10 24 -10 46 0 42 -17 69 -44 69 -12 0 -16 -12 -17 -52
-1 -29 -3 -46 -6 -37 -2 10 -15 16 -33 17 -26 1 -30 -3 -30 -28 0 -15 -6 -30
-14 -33 -8 -3 -16 -18 -19 -34 -2 -15 -5 8 -6 53 -2 129 -10 174 -32 174 -17
0 -19 -8 -19 -66 0 -44 -5 -70 -15 -80 -12 -13 -15 -3 -17 83 -2 79 -6 98 -18
98 -11 0 -16 -14 -18 -57 -2 -42 -7 -58 -17 -58 -8 0 -18 -7 -23 -16 -8 -14
-10 -12 -16 9 -3 14 -15 29 -26 32 -11 3 -20 13 -20 21 0 8 -4 14 -10 14 -6 0
-10 43 -10 108 0 110 -10 152 -30 122 -5 -8 -11 -64 -12 -125 -1 -60 -3 -121
-4 -135 -1 -14 -2 -35 -3 -47 0 -13 -5 -23 -11 -23 -6 0 -10 36 -10 89 0 98
-5 121 -26 121 -11 0 -14 -18 -15 -77 0 -85 -9 -206 -15 -212 -2 -2 -4 35 -4
82 l0 87 -26 0 c-23 0 -26 -3 -22 -30 5 -33 -5 -40 -45 -33 -25 5 -26 3 -30
-43 -3 -46 -4 -45 -5 14 -2 45 -6 62 -16 62 -15 0 -25 -40 -28 -114 -1 -44 -2
-46 -5 -13 -3 21 -13 47 -24 58 -10 10 -19 30 -19 44 0 18 -5 25 -19 25 -17 0
-21 -8 -24 -52 -3 -43 -4 -38 -5 25 -2 58 -5 77 -16 77 -14 0 -26 -29 -26 -67
0 -13 -6 -23 -14 -23 -13 0 -26 -59 -26 -122 0 -19 -4 -28 -12 -26 -9 3 -14
39 -16 121 -1 64 -7 117 -11 117 -11 0 -30 -78 -40 -166 -8 -68 -8 -67 -10 42
-1 92 -4 113 -17 118 -30 12 -34 5 -34 -58 l0 -64 -39 5 -40 5 -4 -53 c-3 -44
-4 -39 -4 21 -1 98 -1 100 -13 100 -5 0 -10 -11 -10 -25 0 -18 -4 -23 -16 -18
-9 3 -20 0 -25 -8 -6 -11 -9 -8 -9 9 0 26 -25 30 -39 5 -7 -12 -11 -13 -11 -5
0 13 -24 42 -34 42 -3 0 -6 -9 -6 -20 0 -11 -5 -20 -11 -20 -6 0 -13 9 -16 20
-3 11 -14 20 -24 20 -11 0 -19 5 -19 10 0 6 -7 10 -15 10 -8 0 -15 7 -15 15 0
8 -4 15 -9 15 -5 0 -13 -24 -16 -53 -5 -42 -11 -55 -31 -64 -22 -10 -24 -9
-24 14 0 15 -5 23 -12 21 -8 -3 -15 -34 -19 -84 -3 -43 -6 -71 -7 -61 -1 10
-9 25 -17 33 -11 11 -15 38 -15 95 0 58 -3 79 -13 79 -13 0 -37 -128 -37 -193
0 -55 -19 -25 -22 36 -3 52 -6 62 -20 61 -14 -1 -18 6 -18 37 0 28 -4 39 -15
39 -10 0 -15 -10 -15 -30 0 -23 -4 -30 -20 -30 -18 0 -20 -7 -20 -70 0 -56 -3
-70 -15 -70 -8 0 -15 9 -15 20 0 11 -4 20 -10 20 -5 0 -10 11 -10 25 0 18 -5
25 -20 25 -19 0 -20 7 -20 111 0 95 -2 110 -15 105 -10 -4 -15 1 -15 15 0 14
-5 19 -17 17 -15 -3 -18 -17 -21 -91 -1 -48 -7 -87 -12 -87 -5 0 -11 -28 -13
-62 l-3 -63 -2 68 c-2 61 -13 85 -25 55 -3 -7 -6 6 -6 30 -1 23 -5 42 -11 42
-5 0 -10 11 -10 25 0 16 -6 25 -15 25 -11 0 -15 -12 -15 -44 0 -25 -5 -46 -12
-48 -7 -3 -14 -32 -16 -71 -4 -58 -7 -66 -26 -69 -11 -2 -25 -13 -31 -25 -16
-38 -24 -26 -27 40 -3 56 -5 62 -25 65 -15 2 -23 10 -23 23 0 10 -4 19 -10 19
-5 0 -10 -17 -10 -37 0 -55 -10 -82 -31 -88 -10 -4 -19 -15 -19 -26 0 -12 -7
-19 -19 -19 -15 0 -20 10 -26 55 -5 45 -10 55 -26 55 -13 0 -19 -7 -19 -22 0
-19 -2 -20 -10 -8 -5 8 -10 25 -10 38 0 25 -3 26 -47 13 -24 -7 -33 -6 -37 5
-12 31 -26 11 -27 -38 -2 -45 -3 -40 -12 35 -7 62 -13 87 -23 87 -10 0 -14
-14 -15 -47 -1 -48 -1 -48 -11 -15 -13 38 -23 41 -32 10 -10 -37 -7 -268 3
-268 6 0 12 12 14 28 3 18 4 14 4 -13 0 -90 3 -105 18 -105 9 0 15 9 15 25 0
30 16 33 23 5 5 -20 27 -28 27 -10 0 6 7 10 15 10 15 0 17 -11 19 -100 1 -28
5 -36 23 -38 20 -3 23 1 21 35 -1 57 9 194 16 200 3 4 6 -33 6 -80 0 -86 0
-87 25 -87 21 0 25 4 22 23 -2 12 -2 16 0 10 3 -7 10 -13 18 -13 9 0 12 11 8
39 -3 21 0 47 6 57 8 15 10 5 11 -48 0 -66 1 -68 25 -68 22 0 24 3 19 29 -4
16 -1 32 5 35 6 4 11 32 11 62 0 36 4 53 10 49 6 -4 8 -15 5 -25 -4 -13 1 -26
14 -37 12 -10 21 -26 21 -36 0 -16 6 -17 53 -11 28 4 54 9 57 11 2 2 8 28 11
56 6 45 7 40 7 -33 -1 -116 0 -120 17 -120 14 0 17 5 19 40 1 21 37 25 48 6 5
-9 17 -16 27 -16 16 0 17 7 13 50 -4 44 -2 50 14 49 11 0 14 -3 7 -6 -17 -6
-16 -21 1 -39 22 -21 36 -17 36 12 0 31 25 58 45 50 9 -3 15 -18 15 -35 0 -38
19 -81 36 -81 8 0 14 18 17 48 2 28 4 15 4 -33 1 -123 1 -125 22 -125 26 0 29
13 23 99 -4 60 -3 73 9 69 16 -5 28 -60 28 -140 1 -52 3 -58 22 -58 21 0 21 3
15 75 -6 71 -6 75 14 75 17 0 20 6 20 43 0 41 0 42 35 42 30 0 35 -3 35 -22 0
-14 6 -23 15 -23 10 0 15 10 15 33 0 28 4 33 22 33 18 -1 24 6 28 32 3 18 8
33 13 32 4 0 16 0 26 0 17 0 21 -10 27 -70 4 -47 11 -70 20 -70 7 0 14 10 17
23 3 16 6 10 12 -20 6 -33 12 -43 26 -43 11 0 19 7 19 15 0 8 4 15 9 15 6 0
12 17 14 38 l4 37 1 -43 c2 -35 7 -44 27 -54 32 -15 57 4 49 37 -7 28 11 69
20 45 3 -8 6 -26 8 -40 2 -14 11 -26 20 -28 12 -2 17 5 20 30 2 25 8 33 23 33
14 0 21 -8 25 -30 5 -32 40 -50 40 -21 0 9 5 16 10 16 6 0 10 30 11 68 l1 67
13 -62 c16 -72 21 -83 40 -83 12 0 35 54 48 115 3 11 5 -3 6 -31 0 -28 4 -99
8 -158 5 -90 9 -106 22 -104 14 3 16 23 16 138 0 132 7 180 26 180 5 0 9 -11
9 -25 0 -26 41 -62 60 -50 10 6 12 -21 14 -165 1 -42 5 -55 16 -55 13 0 15 22
13 145 0 80 1 132 4 115 7 -43 37 -60 46 -26 3 14 11 17 31 14 28 -6 26 6 30
-178 1 -29 6 -41 18 -43 14 -3 18 3 18 24 0 44 9 23 11 -26 2 -61 8 -80 25
-80 10 0 14 -14 14 -55 0 -42 3 -55 15 -55 11 0 15 13 15 53 0 105 12 187 27
187 10 0 14 11 13 38 -4 84 0 112 15 112 8 0 15 8 15 18 1 15 2 15 10 1 5 -9
11 -55 12 -103 2 -82 3 -86 25 -86 13 0 23 5 23 10 0 6 -4 10 -10 10 -14 0
-12 27 3 34 10 5 10 7 0 12 -19 9 -16 44 6 63 12 11 21 33 23 59 5 64 22 55
32 -15 8 -57 11 -63 32 -63 21 0 24 -5 24 -40 0 -34 3 -40 21 -40 18 0 20 4
15 26 -9 36 3 94 20 94 10 0 14 -14 14 -51 0 -43 3 -50 18 -47 14 3 17 13 14
61 l-2 57 30 0 c27 0 30 -3 30 -30 0 -16 5 -30 10 -30 6 0 10 -6 10 -14 0 -7
8 -16 18 -18 16 -5 19 -17 20 -89 1 -46 7 -85 12 -87 6 -2 10 -10 10 -17 0
-25 23 -65 37 -65 8 0 13 13 13 38 0 34 3 38 23 38 16 -1 23 5 25 22 2 12 7
22 12 22 5 0 10 8 12 18 2 9 4 -9 5 -41 0 -64 3 -70 27 -61 17 7 22 34 6 34
-5 0 -10 7 -10 15 0 8 5 15 10 15 15 0 12 70 -2 71 -7 1 -2 4 12 8 27 8 27 3
29 159 0 47 5 82 11 82 6 0 10 -31 10 -72 0 -98 7 -118 37 -118 20 0 23 4 18
20 -5 14 -2 20 9 20 12 0 16 11 16 50 0 35 4 48 13 45 20 -8 35 8 39 40 2 17
7 -6 12 -52 6 -61 12 -83 22 -83 10 0 14 13 14 45 0 25 5 45 11 45 18 0 39
-27 39 -52 0 -35 25 -111 38 -116 7 -2 12 -12 12 -23 0 -10 5 -19 10 -19 6 0
10 -25 10 -55 0 -30 4 -55 10 -55 5 0 12 -11 16 -25 8 -31 21 -32 27 -2 2 12
5 3 6 -20 1 -31 5 -43 16 -43 16 0 19 21 18 120 0 30 1 45 4 34 3 -15 12 -21
29 -21 22 0 24 4 24 43 0 24 5 44 10 44 6 0 10 -57 10 -150 0 -126 2 -150 15
-150 12 0 15 27 17 162 2 107 7 163 14 165 7 2 13 -18 17 -53 6 -63 10 -69 32
-61 10 5 15 20 15 51 0 26 5 46 12 48 8 3 13 28 13 69 1 35 6 73 13 84 10 17
11 12 12 -31 0 -37 4 -54 15 -58 8 -3 15 -12 15 -21 0 -8 4 -15 9 -15 14 0 23
32 11 44 -12 12 -13 63 -1 70 5 3 14 -22 20 -57 6 -34 15 -63 21 -65 13 -5 13
-32 0 -32 -5 0 -10 -4 -10 -10 0 -22 40 -9 46 15 3 14 11 25 16 25 6 0 8 14 6
30 -3 21 -1 27 6 20 5 -5 17 -10 26 -10 14 0 16 9 12 55 -3 37 -1 55 7 55 11
0 12 -18 15 -193 1 -79 3 -88 19 -83 9 2 17 0 17 -5 0 -5 9 -9 19 -9 11 0 22
-6 24 -12 4 -10 8 -9 16 2 8 11 11 -13 11 -90 0 -140 9 -210 26 -210 8 0 14
-4 14 -10 0 -5 5 -10 10 -10 6 0 10 7 10 15 0 8 -4 15 -10 15 -11 0 -14 169
-4 208 11 40 24 23 24 -33 0 -42 3 -55 15 -55 12 0 15 16 16 83 1 45 4 72 6
60 2 -13 11 -23 18 -23 11 0 15 22 18 93 2 78 3 72 5 -40 1 -81 6 -133 12
-133 6 0 10 20 10 44 0 41 1 43 25 38 25 -4 25 -4 25 66 0 39 3 77 6 86 11 29
23 17 26 -26 3 -38 6 -43 26 -41 18 2 22 -2 22 -27 0 -21 5 -30 16 -30 14 0
16 15 12 125 -4 101 -3 125 8 125 8 0 15 -10 16 -22 1 -13 2 -32 3 -43 1 -11
3 -77 4 -147 1 -107 4 -128 16 -128 9 0 16 10 16 28 1 15 3 47 4 72 2 25 3 62
4 83 1 24 6 37 15 37 10 0 13 19 10 90 -3 83 8 123 22 86 3 -9 15 -16 26 -16
16 0 19 -7 19 -47 0 -27 2 -112 5 -190 5 -113 9 -143 20 -143 10 0 14 14 14
50 0 43 3 50 20 50 18 0 20 -7 20 -65 0 -38 4 -65 10 -65 16 0 20 19 23 105 1
52 6 80 15 83 9 3 12 -17 12 -77 0 -74 2 -81 20 -81 18 0 20 -7 20 -74 0 -41
3 -77 8 -79 4 -3 19 -3 34 0 l26 5 4 139 c3 122 5 140 22 152 17 12 19 23 14
93 -3 43 -3 67 -1 52 8 -51 23 -29 23 32 0 33 4 60 10 60 6 0 10 -45 10 -115
0 -96 3 -115 15 -115 11 0 15 -13 15 -52 0 -49 12 -89 24 -78 2 3 6 56 7 118
2 108 3 112 25 112 20 0 22 4 18 50 -2 38 0 48 10 44 19 -7 26 -37 26 -116 0
-61 2 -68 20 -68 17 0 20 7 20 50 0 28 -4 50 -10 50 -5 0 -10 14 -10 30 0 17
5 30 10 30 6 0 10 -13 10 -30 0 -17 5 -30 13 -30 8 0 12 22 12 79 0 71 7 103
19 90 3 -2 8 -66 12 -142 7 -133 8 -138 28 -135 20 3 21 8 20 118 -1 63 0 99
2 80 12 -104 16 -120 30 -120 8 0 14 7 14 15 0 8 5 15 10 15 6 0 10 -37 10
-90 0 -65 3 -90 13 -90 13 0 21 73 20 198 0 39 3 72 7 72 13 0 20 -61 20 -185
0 -162 9 -245 26 -245 11 0 14 19 15 73 2 125 13 242 24 239 6 -1 10 -17 11
-35 0 -17 1 -69 2 -114 2 -66 5 -83 17 -83 10 0 16 16 21 50 4 32 11 50 20 50
11 0 14 18 14 75 0 41 4 75 9 75 6 0 12 15 14 33 3 22 4 15 5 -20 2 -40 6 -53
17 -53 9 0 18 6 21 14 3 8 12 12 20 9 11 -4 14 -34 14 -149 0 -137 1 -144 20
-144 19 0 20 7 22 158 1 89 4 121 5 75 2 -46 8 -83 12 -83 14 0 23 107 17 192
-5 69 -4 77 10 71 13 -5 15 -15 10 -50 -4 -33 -2 -45 9 -49 9 -4 15 -19 15
-41 0 -48 23 -38 31 13 l6 39 2 -45 c2 -54 12 -73 34 -64 13 5 17 19 17 60 0
30 -4 54 -10 54 -14 0 -13 27 2 32 6 2 14 26 17 54 5 39 10 48 23 46 13 -2 18
7 21 40 3 42 4 42 5 -9 1 -32 8 -58 18 -68 20 -19 38 -15 43 10 1 10 15 29 30
42 l26 25 5 -43 c3 -30 10 -45 21 -47 15 -3 16 6 14 65 -2 37 -1 55 1 39 3
-16 13 -30 24 -33 15 -4 20 -16 22 -57 3 -43 6 -51 23 -51 17 0 19 7 20 74 0
50 4 76 13 78 9 4 12 -13 12 -62 0 -63 1 -66 23 -63 18 2 22 9 22 37 0 32 24
59 26 29 3 -74 7 -102 17 -106 7 -2 15 -21 18 -43 8 -50 34 -53 34 -4 0 24 5
35 15 35 8 0 15 5 15 10 0 6 14 10 30 10 17 0 30 5 30 10 0 6 7 10 15 10 10 0
15 10 15 30 0 17 4 30 9 30 9 0 21 -57 21 -102 0 -19 5 -28 16 -28 15 0 16 9
10 70 -4 45 -2 70 4 70 5 0 10 -9 10 -20 0 -15 7 -20 25 -20 23 0 24 4 27 63
3 56 5 62 26 65 18 3 22 -1 22 -21 0 -22 16 -37 40 -37 5 0 10 12 12 28 2 15
9 27 17 27 12 0 15 -21 17 -100 1 -55 3 -106 3 -112 1 -7 11 -13 24 -13 22 0
22 1 18 115 -2 92 0 115 10 115 21 -1 49 -25 49 -44 0 -27 28 -18 33 12 4 25
10 -101 10 -195 -1 -39 2 -43 23 -43 19 0 24 5 24 25 0 14 -4 25 -10 25 -6 0
-10 30 -10 70 0 39 3 70 6 70 3 0 14 -4 24 -10 13 -7 20 -27 25 -80 5 -50 11
-70 21 -70 10 0 13 7 8 25 -10 41 5 135 22 135 8 0 14 -9 14 -19 0 -30 11 -51
26 -51 9 0 13 16 13 61 0 33 2 63 5 67 3 3 6 -13 6 -36 0 -23 4 -42 9 -42 6 0
11 -15 13 -32 2 -21 9 -34 19 -36 14 -3 16 4 12 42 -4 35 -2 46 8 46 34 0 50
-40 57 -138 5 -62 11 -97 20 -100 9 -3 12 30 11 143 0 80 2 149 5 152 3 4 6
-23 6 -58 0 -71 10 -95 34 -86 12 5 16 22 17 74 2 63 2 64 8 23 8 -56 18 -72
40 -65 12 4 21 -2 29 -20 20 -43 29 -28 39 63 l10 87 2 -82 c1 -70 4 -84 20
-93 11 -5 22 -10 24 -10 3 0 2 30 -1 66 -4 60 -3 66 13 63 10 -2 22 -17 26
-33 9 -32 24 -46 52 -46 11 0 17 8 17 23 0 13 3 26 6 30 9 8 44 -15 44 -30 0
-6 4 -13 10 -15 5 -1 12 -19 14 -38 2 -19 4 -38 5 -42 2 -18 21 -6 27 17 4 15
13 25 24 25 15 0 18 7 15 38 -1 20 -1 29 2 19 2 -10 11 -21 19 -24 8 -3 14
-16 14 -29 0 -27 14 -30 53 -11 25 12 43 49 32 67 -3 5 -1 11 5 15 6 4 10 -11
10 -40 0 -50 18 -67 51 -47 10 7 30 12 44 12 16 0 25 6 25 15 0 8 -4 15 -10
15 -15 0 -12 29 5 46 8 9 15 11 15 5 0 -19 20 -12 21 7 0 10 3 12 6 5 7 -19
53 -16 53 3 0 25 17 7 23 -26 4 -17 13 -30 21 -30 11 0 14 12 12 53 -2 28 -1
35 1 15 2 -21 8 -38 13 -38 5 0 12 -16 16 -35 3 -19 10 -35 15 -35 5 0 9 -11
9 -25 0 -16 6 -25 16 -25 13 0 15 10 10 68 -5 54 -4 63 5 45 7 -13 20 -23 31
-23 14 0 18 8 18 35 0 24 5 35 15 35 11 0 15 -11 16 -37 1 -76 8 -128 18 -131
6 -2 11 -19 11 -38 0 -25 4 -34 16 -34 14 0 16 8 11 54 -5 46 -2 57 16 77 l22
24 3 -53 c3 -48 5 -52 28 -52 23 0 24 3 18 35 -5 27 -3 36 10 41 9 3 16 11 15
18 -1 6 1 18 4 26 3 8 8 29 10 45 2 17 5 2 6 -32 0 -38 6 -64 14 -67 10 -5 10
-7 0 -12 -7 -3 -13 -12 -13 -19 0 -7 6 -16 13 -18 10 -4 10 -6 0 -6 -24 -2
-13 -21 12 -21 24 0 25 1 18 60 -5 56 -5 60 15 60 20 0 21 4 17 48 -2 26 -2
39 1 30 6 -19 38 -33 54 -23 6 4 10 -10 10 -34 0 -32 4 -41 18 -41 9 0 27 -3
39 -6 20 -5 22 -2 26 37 l4 44 1 -42 c2 -32 6 -43 18 -43 11 0 13 6 9 19 -3
11 1 25 10 34 8 9 15 23 15 31 0 9 6 16 14 16 11 0 14 9 11 33 -3 17 -7 72
-11 120 -5 75 -8 88 -22 85 -12 -2 -18 -17 -22 -53 l-4 -50 -6 59 c-6 75 -30
89 -31 19 -1 -61 -17 -107 -18 -51 -1 24 -9 46 -25 62 -28 31 -33 32 -39 9 -3
-10 -5 3 -6 30 -1 40 -4 47 -21 47 -15 0 -20 -7 -20 -29 0 -21 -6 -30 -21 -34
-14 -4 -20 -11 -16 -21 4 -10 1 -13 -9 -9 -8 3 -14 -1 -14 -11 0 -9 -4 -16
-10 -16 -6 0 -10 30 -10 70 0 39 -4 70 -9 70 -10 0 -21 -83 -21 -166 0 -47 -4
-63 -16 -68 -11 -4 -18 1 -21 14 -6 22 -29 27 -36 8 -3 -7 -6 18 -6 55 -1 64
-2 68 -21 62 -18 -6 -20 -2 -20 49 0 49 -2 56 -20 56 -19 0 -20 -7 -21 -102
-1 -142 -14 -167 -22 -43 -4 55 -7 124 -7 153 0 45 -3 52 -20 52 -17 0 -20 -7
-21 -47 -1 -27 -3 -61 -5 -78 -4 -40 -22 -95 -23 -72 -1 25 -25 16 -29 -11 -2
-12 -10 -22 -18 -22 -10 0 -14 13 -14 45 0 25 -4 45 -8 45 -18 0 -32 -26 -34
-60 l-1 -35 -4 33 c-5 39 -39 46 -45 10 -2 -13 -7 5 -11 40 -11 91 -27 76 -27
-25 0 -49 -5 -95 -10 -103 -8 -12 -10 -12 -10 5 0 11 -10 25 -22 30 -19 8 -24
19 -26 58 -2 33 -7 47 -18 47 -11 0 -14 -16 -15 -67 -1 -38 -4 -59 -6 -48 -3
11 -11 24 -19 28 -8 5 -14 24 -14 47 0 29 -4 40 -15 40 -8 0 -15 -6 -15 -14 0
-8 -11 -17 -25 -20 -14 -4 -25 -13 -25 -21 0 -8 -7 -15 -15 -15 -11 0 -15 11
-15 40 0 36 -2 40 -25 40 -18 0 -25 5 -25 20 0 13 -7 20 -20 20 -11 0 -20 7
-20 15 0 8 -4 15 -10 15 -5 0 -10 -22 -10 -49 0 -60 -10 -111 -21 -111 -5 0
-9 14 -9 30 0 20 -5 30 -15 30 -10 0 -15 -10 -15 -27 0 -40 -11 -74 -21 -67
-5 3 -9 25 -9 50 0 37 -3 44 -20 44 -16 0 -20 7 -20 36 0 28 -3 35 -15 30 -10
-4 -15 1 -15 14 0 21 -45 39 -60 24 -5 -5 -11 -38 -14 -74 -3 -36 -9 -90 -14
-120 l-9 -55 -3 65 c-1 36 -2 71 -1 78 1 6 -7 12 -19 12 -17 0 -20 -7 -22 -42
l-1 -43 -4 40 c-3 22 -9 44 -14 49 -11 12 -38 -21 -39 -46 0 -11 -8 -18 -19
-18 -15 0 -22 -10 -28 -42 -5 -23 -14 -43 -21 -46 -9 -3 -12 21 -12 92 l0 96
-30 0 c-33 0 -37 -9 -43 -90 l-4 -45 -1 48 c-1 26 -6 47 -11 47 -5 0 -16 2
-23 5 -9 4 -19 -4 -26 -17 -6 -13 -11 -17 -11 -10 -1 6 -10 12 -21 12 -15 0
-20 -7 -20 -29 0 -16 -7 -42 -15 -57 l-15 -29 0 48 c0 56 -20 72 -49 38 -23
-26 -31 -27 -31 -2 0 28 -18 36 -39 17 -27 -25 -31 -20 -31 43 0 52 -2 59 -22
65 -33 8 -38 8 -38 -8 0 -17 -42 -29 -51 -14 -12 18 -29 -2 -30 -35 -1 -24 -3
-26 -6 -9 -2 12 -8 22 -13 22 -5 0 -15 7 -24 15 -28 28 -50 5 -49 -51 0 -6 -8
-9 -18 -7 -13 4 -19 14 -19 34 0 19 -5 29 -15 29 -14 0 -19 -30 -18 -112 0
-10 -8 -18 -18 -18 -19 0 -29 -19 -29 -58 0 -20 -3 -23 -12 -14 -6 6 -14 44
-17 84 -4 44 -11 73 -18 76 -7 2 -13 -4 -13 -13 0 -12 -5 -15 -16 -11 -9 3
-18 6 -20 6 -2 0 -4 14 -4 31 0 38 -24 35 -28 -5 -3 -22 -7 -26 -23 -21 -11 4
-26 1 -34 -5 -13 -11 -15 -5 -15 39 0 28 -4 51 -10 51 -5 0 -10 -6 -10 -14 0
-8 -6 -21 -13 -28 -7 -7 -18 -22 -25 -33 -6 -11 -12 -14 -12 -7 0 6 -7 12 -15
12 -8 0 -15 8 -15 19 0 23 -25 45 -44 38 -8 -3 -17 -19 -21 -36 -4 -17 -11
-33 -16 -36 -5 -4 -9 -15 -9 -27 0 -14 -5 -18 -16 -14 -9 3 -18 6 -20 6 -2 0
-4 18 -4 39 0 22 -4 43 -10 46 -5 3 -10 27 -10 51 0 58 -24 56 -27 -2 -5 -76
-15 -114 -30 -114 -21 0 -56 -37 -50 -54 7 -17 -22 -46 -47 -46 -15 0 -16 13
-15 115 3 113 -5 146 -30 131 -6 -4 -11 -14 -11 -22 0 -8 -9 -14 -19 -14 -13
0 -21 -9 -26 -30 -12 -57 -32 -29 -26 38 1 16 -4 22 -18 22 -12 0 -21 -8 -24
-22 -5 -25 -11 70 -8 115 2 19 -2 27 -13 27 -12 0 -16 -10 -16 -39 0 -42 -10
-50 -47 -43 -23 4 -23 5 -23 183 0 163 -4 192 -23 172z m-1950 -315 c-2 -13
-4 -3 -4 22 0 25 2 35 4 23 2 -13 2 -33 0 -45z m370 -270 c-2 -13 -4 -5 -4 17
-1 22 1 32 4 23 2 -10 2 -28 0 -40z m-1607 -32 c0 -3 -4 -8 -10 -11 -5 -3 -10
-1 -10 4 0 6 5 11 10 11 6 0 10 -2 10 -4z m4407 -43 c-3 -10 -5 -4 -5 12 0 17
2 24 5 18 2 -7 2 -21 0 -30z m-4584 7 c3 -11 1 -20 -4 -20 -5 0 -9 9 -9 20 0
11 2 20 4 20 2 0 6 -9 9 -20z m4509 -12 c-9 -9 -12 -7 -12 12 0 19 3 21 12 12
9 -9 9 -15 0 -24z m-4335 0 c-3 -8 -6 -5 -6 6 -1 11 2 17 5 13 3 -3 4 -12 1
-19z m-740 -4 c-3 -3 -12 -4 -19 -1 -8 3 -5 6 6 6 11 1 17 -2 13 -5z m-1117
-84 c0 -22 -4 -40 -10 -40 -5 0 -10 18 -10 40 0 22 5 40 10 40 6 0 10 -18 10
-40z m4247 -222 c-1 -40 -3 -8 -3 72 0 80 2 112 3 73 2 -40 2 -106 0 -145z
m660 155 c-3 -10 -5 -2 -5 17 0 19 2 27 5 18 2 -10 2 -26 0 -35z m960 -15 c-2
-13 -4 -3 -4 22 0 25 2 35 4 23 2 -13 2 -33 0 -45z m-3920 -10 c-2 -13 -4 -3
-4 22 0 25 2 35 4 23 2 -13 2 -33 0 -45z m80 -45 c-2 -21 -4 -6 -4 32 0 39 2
55 4 38 2 -18 2 -50 0 -70z m2800 0 c-2 -21 -4 -6 -4 32 0 39 2 55 4 38 2 -18
2 -50 0 -70z m1100 60 c-3 -10 -5 -4 -5 12 0 17 2 24 5 18 2 -7 2 -21 0 -30z
m-1890 5 c-3 -8 -6 -5 -6 6 -1 11 2 17 5 13 3 -3 4 -12 1 -19z m-3150 -25 c-3
-10 -5 -4 -5 12 0 17 2 24 5 18 2 -7 2 -21 0 -30z m2630 0 c-3 -10 -5 -4 -5
12 0 17 2 24 5 18 2 -7 2 -21 0 -30z m410 -70 c-2 -16 -4 -3 -4 27 0 30 2 43
4 28 2 -16 2 -40 0 -55z m1390 30 c-3 -10 -5 -4 -5 12 0 17 2 24 5 18 2 -7 2
-21 0 -30z m-260 -25 c-2 -13 -4 -5 -4 17 -1 22 1 32 4 23 2 -10 2 -28 0 -40z
m-1750 -15 c-3 -10 -5 -4 -5 12 0 17 2 24 5 18 2 -7 2 -21 0 -30z m1000 -60
c-2 -16 -4 -5 -4 22 0 28 2 40 4 28 2 -13 2 -35 0 -50z m720 -30 c-2 -16 -4
-5 -4 22 0 28 2 40 4 28 2 -13 2 -35 0 -50z m-2470 15 c-3 -8 -6 -5 -6 6 -1
11 2 17 5 13 3 -3 4 -12 1 -19z m1120 -30 c-3 -7 -5 -2 -5 12 0 14 2 19 5 13
2 -7 2 -19 0 -25z"/>
<path d="M442 3088 c-19 -19 -15 -48 8 -48 11 0 20 -4 20 -10 0 -5 -9 -10 -21
-10 -36 0 -15 -25 24 -28 36 -3 37 -2 37 32 0 30 -4 35 -27 39 l-28 4 28 2
c18 0 27 6 25 14 -6 17 -50 21 -66 5z"/>
<path d="M747 3093 c-26 -7 -18 -47 11 -51 31 -5 28 -22 -4 -22 -16 0 -24 -5
-22 -12 6 -16 32 -22 64 -14 35 9 30 57 -6 67 -25 7 -25 7 -2 8 14 1 22 6 20
14 -5 13 -32 18 -61 10z"/>
<path d="M852 3091 c-9 -5 -12 -24 -10 -52 3 -49 23 -61 64 -38 30 16 32 55 2
80 -23 21 -36 23 -56 10z m36 -49 c2 -15 -2 -22 -12 -22 -11 0 -16 9 -16 26 0
31 23 28 28 -4z"/>
<path d="M958 3093 c-14 -3 -18 -15 -18 -49 0 -24 5 -44 10 -44 6 0 10 16 10
35 0 24 5 35 15 35 8 0 15 7 15 15 0 15 -2 16 -32 8z"/>
<path d="M526 3074 c-10 -25 -7 -59 6 -72 14 -14 68 -16 68 -2 0 6 -5 10 -11
10 -6 0 -4 7 5 15 20 20 23 19 30 -10 9 -37 26 -30 26 10 0 28 4 35 20 35 16
0 20 -7 20 -30 0 -20 5 -30 15 -30 16 0 21 43 9 74 -9 22 -73 21 -90 -1 -13
-17 -13 -17 -14 0 0 23 -75 25 -84 1z"/>
<path d="M1020 3071 c0 -10 5 -33 12 -51 9 -26 9 -35 0 -38 -20 -6 -14 -22 8
-22 15 0 23 11 32 45 7 25 16 45 20 45 4 0 8 9 8 20 0 27 -27 25 -36 -2 l-7
-23 -10 23 c-12 27 -27 29 -27 3z"/>
<path d="M1480 2870 c-12 -46 -2 -121 18 -128 9 -3 11 14 10 60 -1 35 2 73 6
86 6 17 5 22 -7 22 -10 0 -20 -15 -27 -40z"/>
<path d="M1626 2852 c5 -48 3 -61 -12 -76 -14 -15 -15 -19 -3 -27 22 -14 26
-11 38 22 21 60 12 139 -16 139 -11 0 -13 -11 -7 -58z"/>
<path d="M1547 2873 c-7 -38 5 -105 20 -110 12 -4 17 81 6 120 -7 26 -20 21
-26 -10z"/>
<path d="M530 2871 c0 -11 -5 -21 -11 -23 -9 -3 -9 -9 0 -25 6 -12 11 -33 11
-47 0 -16 6 -26 14 -26 13 0 16 52 7 128 -2 20 -21 14 -21 -7z"/>
<path d="M892 2823 c2 -55 6 -68 21 -71 15 -3 17 5 17 67 0 65 -2 71 -20 71
-19 0 -21 -5 -18 -67z"/>
<path d="M10920 2866 c0 -18 -45 -28 -130 -30 l-65 -1 -3 -32 c-2 -18 -6 -33
-9 -33 -11 0 -32 35 -33 53 0 18 -20 25 -20 6 0 -6 -7 -3 -16 5 -35 36 -87 8
-82 -43 4 -40 25 -56 61 -47 19 4 27 13 27 29 0 21 1 21 13 -3 9 -19 22 -26
50 -28 21 -2 37 1 37 7 0 6 7 8 15 5 11 -5 15 1 15 24 0 21 6 31 20 35 17 4
20 0 20 -23 0 -29 21 -53 27 -33 3 7 13 6 32 -3 16 -8 35 -12 44 -9 28 11 39
135 12 135 -8 0 -15 -6 -15 -14z m-301 -55 c12 -8 12 -12 -2 -25 -22 -22 -27
-20 -27 9 0 27 6 30 29 16z m301 -16 c0 -14 -4 -25 -9 -25 -12 0 -23 29 -15
41 10 18 24 9 24 -16z"/>
<path d="M432 2848 c-19 -19 -14 -38 11 -48 17 -7 18 -9 5 -9 -11 -1 -18 -9
-18 -22 0 -17 5 -20 38 -17 34 3 37 6 37 33 0 25 -5 31 -30 36 l-30 7 28 1
c30 1 36 15 11 25 -24 9 -39 7 -52 -6z"/>
<path d="M680 2851 l-45 -6 -3 -47 c-3 -43 -1 -48 17 -48 17 0 21 6 21 29 0
17 5 33 10 36 6 4 10 -7 10 -24 0 -21 5 -31 15 -31 10 0 15 10 15 30 0 17 5
30 10 30 6 0 10 -16 10 -35 0 -28 4 -35 20 -35 17 0 20 7 20 45 0 40 -3 47
-26 55 -14 6 -26 9 -27 8 -1 0 -22 -4 -47 -7z"/>
<path d="M1063 2853 c-20 -7 -16 -51 5 -56 16 -4 16 -5 0 -6 -11 -1 -18 -9
-18 -21 0 -16 7 -20 34 -20 39 0 60 20 51 50 -4 13 -16 20 -33 21 -24 2 -24 2
-4 6 12 2 22 11 22 19 0 14 -31 18 -57 7z"/>
<path d="M1392 2853 c-19 -4 -23 -9 -18 -28 3 -13 2 -27 -4 -30 -23 -14 -9
-33 24 -33 l34 0 -1 49 c0 27 -3 48 -6 48 -3 -1 -17 -4 -29 -6z"/>
<path d="M590 2806 c0 -35 4 -46 16 -46 12 0 14 9 12 42 -4 59 -28 63 -28 4z"/>
<path d="M790 2806 c0 -48 9 -56 61 -56 28 0 29 1 29 50 0 39 -3 50 -16 50
-10 0 -14 -6 -10 -15 8 -21 -3 -45 -20 -45 -9 0 -14 11 -14 30 0 20 -5 30 -15
30 -11 0 -15 -12 -15 -44z"/>
<path d="M952 2803 l3 -48 40 0 40 0 3 48 c3 42 1 47 -17 47 -17 0 -21 -6 -21
-31 0 -38 -24 -35 -28 4 -6 47 -23 29 -20 -20z"/>
<path d="M10483 2843 c-7 -2 -13 -16 -13 -29 0 -17 6 -24 20 -24 11 0 20 -4
20 -10 0 -5 -9 -10 -20 -10 -11 0 -20 -7 -20 -16 0 -12 9 -14 38 -12 34 3 37
6 40 35 3 29 1 32 -30 36 l-33 4 33 1 c30 2 47 22 18 22 -8 0 -20 2 -28 4 -7
3 -19 2 -25 -1z"/>
<path d="M8680 2440 c0 -16 5 -30 10 -30 6 0 10 14 10 30 0 17 -4 30 -10 30
-5 0 -10 -13 -10 -30z"/>
<path d="M4000 2430 c0 -11 7 -20 15 -20 8 0 15 9 15 20 0 11 -7 20 -15 20 -8
0 -15 -9 -15 -20z"/>
<path d="M8680 2330 c0 -11 5 -20 10 -20 6 0 10 9 10 20 0 11 -4 20 -10 20 -5
0 -10 -9 -10 -20z"/>
<path d="M4010 2325 c0 -8 5 -15 10 -15 6 0 10 7 10 15 0 8 -4 15 -10 15 -5 0
-10 -7 -10 -15z"/>
<path d="M8680 2235 c0 -14 5 -25 10 -25 6 0 10 11 10 25 0 14 -4 25 -10 25
-5 0 -10 -11 -10 -25z"/>
<path d="M4010 2225 c0 -8 5 -15 10 -15 6 0 10 7 10 15 0 8 -4 15 -10 15 -5 0
-10 -7 -10 -15z"/>
<path d="M4010 2130 c0 -16 5 -30 10 -30 6 0 10 14 10 30 0 17 -4 30 -10 30
-5 0 -10 -13 -10 -30z"/>
<path d="M6350 2130 c0 -34 5 -37 26 -15 14 13 14 17 0 30 -21 22 -26 19 -26
-15z"/>
<path d="M8680 2130 c0 -16 5 -30 10 -30 6 0 10 14 10 30 0 17 -4 30 -10 30
-5 0 -10 -13 -10 -30z"/>
<path d="M4010 2035 c0 -14 5 -25 10 -25 6 0 10 11 10 25 0 14 -4 25 -10 25
-5 0 -10 -11 -10 -25z"/>
<path d="M6350 2035 c0 -14 5 -25 10 -25 6 0 10 11 10 25 0 14 -4 25 -10 25
-5 0 -10 -11 -10 -25z"/>
<path d="M8680 2035 c0 -14 5 -25 10 -25 6 0 10 11 10 25 0 14 -4 25 -10 25
-5 0 -10 -11 -10 -25z"/>
<path d="M5690 2030 c0 -11 5 -20 10 -20 6 0 10 9 10 20 0 11 -4 20 -10 20 -5
0 -10 -9 -10 -20z"/>
<path d="M4006 1934 c-8 -29 -3 -39 13 -29 13 8 15 55 2 55 -5 0 -12 -12 -15
-26z"/>
<path d="M5690 1930 c0 -16 5 -30 10 -30 6 0 10 14 10 30 0 17 -4 30 -10 30
-5 0 -10 -13 -10 -30z"/>
<path d="M6350 1935 c0 -14 5 -25 10 -25 6 0 10 11 10 25 0 14 -4 25 -10 25
-5 0 -10 -11 -10 -25z"/>
<path d="M8680 1935 c0 -14 5 -25 10 -25 6 0 10 11 10 25 0 14 -4 25 -10 25
-5 0 -10 -11 -10 -25z"/>
<path d="M6350 1840 c0 -16 5 -30 10 -30 6 0 10 14 10 30 0 17 -4 30 -10 30
-5 0 -10 -13 -10 -30z"/>
<path d="M4010 1835 c0 -14 5 -25 10 -25 6 0 10 11 10 25 0 14 -4 25 -10 25
-5 0 -10 -11 -10 -25z"/>
<path d="M5690 1830 c0 -16 5 -30 10 -30 6 0 10 14 10 30 0 17 -4 30 -10 30
-5 0 -10 -13 -10 -30z"/>
<path d="M8680 1835 c0 -14 5 -25 10 -25 6 0 10 11 10 25 0 14 -4 25 -10 25
-5 0 -10 -11 -10 -25z"/>
<path d="M4750 1771 c0 -5 -18 -11 -40 -15 -49 -8 -53 -30 -9 -45 41 -14 79
-14 79 0 0 12 885 8 913 -5 14 -7 17 -3 17 15 l0 24 -463 2 c-398 3 -464 5
-473 18 -12 17 -24 20 -24 6z"/>
<path d="M7730 1771 c0 -5 -9 -11 -20 -14 -33 -9 -23 -35 18 -46 49 -14 62
-14 62 2 0 10 74 12 353 10 193 -2 398 -4 455 -6 92 -2 102 -1 102 15 0 17
-26 18 -455 18 -398 0 -455 2 -455 15 0 10 -10 15 -30 15 -16 0 -30 -4 -30 -9z"/>
<path d="M10020 1765 c0 -13 -34 -15 -244 -15 -246 0 -336 -6 -336 -21 0 -5
130 -9 289 -9 193 0 290 -3 293 -10 4 -14 82 -2 105 16 16 12 16 15 3 24 -8 5
-27 10 -42 10 -16 0 -28 5 -28 10 0 6 -9 10 -20 10 -11 0 -20 -7 -20 -15z"/>
<path d="M3042 1753 c-36 -7 -23 -36 22 -46 28 -7 40 -6 46 3 5 9 114 11 464
8 410 -4 456 -3 456 11 0 14 -45 16 -451 13 -316 -3 -454 -1 -462 7 -11 11
-32 12 -75 4z"/>
<path d="M6350 1730 c0 -11 5 -20 10 -20 6 0 10 9 10 20 0 11 -4 20 -10 20 -5
0 -10 -9 -10 -20z"/>
<path d="M9777 1663 c-9 -8 -9 -86 -1 -107 3 -9 12 -16 18 -16 9 0 12 18 11
58 -1 31 -3 60 -4 65 -1 9 -15 9 -24 0z"/>
<path d="M4000 1636 c0 -17 5 -26 16 -26 10 0 14 7 12 22 -5 32 -28 35 -28 4z"/>
<path d="M6350 1635 c0 -14 5 -25 10 -25 6 0 10 11 10 25 0 14 -4 25 -10 25
-5 0 -10 -11 -10 -25z"/>
<path d="M5670 1634 c0 -15 23 -44 34 -44 3 0 6 14 6 30 0 23 -4 30 -20 30
-12 0 -20 -7 -20 -16z"/>
<path d="M8680 1630 c0 -11 5 -20 10 -20 6 0 10 9 10 20 0 11 -4 20 -10 20 -5
0 -10 -9 -10 -20z"/>
<path d="M3466 1631 c-7 -11 3 -41 14 -41 5 0 11 6 13 13 3 6 6 -7 6 -30 1
-39 3 -43 26 -43 24 0 25 2 19 39 -5 30 -3 39 10 44 9 4 16 11 16 17 0 12 -97
14 -104 1z"/>
<path d="M6339 1556 c-2 -2 -218 -7 -479 -10 -261 -3 -479 -5 -483 -6 -5 0 -7
-10 -5 -22 2 -17 13 -24 42 -30 26 -6 42 -5 46 2 7 12 20 12 593 14 l317 1 0
28 c0 24 -17 36 -31 23z"/>
<path d="M4000 1525 c0 -16 6 -25 15 -25 9 0 15 9 15 25 0 16 -6 25 -15 25 -9
0 -15 -9 -15 -25z"/>
<path d="M8674 1534 c3 -9 6 -20 6 -25 0 -5 5 -9 10 -9 6 0 10 11 10 25 0 16
-6 25 -16 25 -11 0 -14 -5 -10 -16z"/>
<path d="M4000 1436 c0 -17 5 -26 16 -26 10 0 14 7 12 22 -5 32 -28 35 -28 4z"/>
<path d="M6340 1435 c0 -16 6 -25 15 -25 9 0 15 9 15 25 0 16 -6 25 -15 25 -9
0 -15 -9 -15 -25z"/>
<path d="M8680 1435 c0 -14 5 -25 10 -25 6 0 10 11 10 25 0 14 -4 25 -10 25
-5 0 -10 -11 -10 -25z"/>
<path d="M5670 1430 c0 -11 2 -20 4 -20 2 0 11 -3 20 -6 12 -5 16 0 16 20 0
19 -5 26 -20 26 -13 0 -20 -7 -20 -20z"/>
<path d="M4000 1330 c0 -16 5 -30 10 -30 6 0 10 14 10 30 0 17 -4 30 -10 30
-5 0 -10 -13 -10 -30z"/>
<path d="M6342 1333 c4 -39 28 -42 28 -4 0 21 -5 31 -16 31 -11 0 -14 -8 -12
-27z"/>
<path d="M8677 1338 c-7 -23 -1 -38 14 -38 5 0 9 14 9 30 0 35 -15 40 -23 8z"/>
<path d="M5670 1325 c0 -8 2 -15 4 -15 2 0 11 -3 20 -6 12 -4 16 0 16 15 0 14
-6 21 -20 21 -11 0 -20 -7 -20 -15z"/>
<path d="M4000 1230 c0 -11 7 -20 15 -20 17 0 18 2 9 24 -9 23 -24 20 -24 -4z"/>
<path d="M5670 1230 c0 -11 2 -20 4 -20 2 0 11 -3 20 -6 12 -5 16 0 16 20 0
19 -5 26 -20 26 -13 0 -20 -7 -20 -20z"/>
<path d="M6340 1230 c0 -11 7 -20 15 -20 8 0 15 9 15 20 0 11 -7 20 -15 20 -8
0 -15 -9 -15 -20z"/>
<path d="M8674 1234 c3 -9 6 -18 6 -20 0 -2 5 -4 10 -4 6 0 10 9 10 20 0 12
-7 20 -16 20 -11 0 -14 -5 -10 -16z"/>
<path d="M6340 1135 c0 -16 6 -25 15 -25 9 0 15 9 15 25 0 16 -6 25 -15 25 -9
0 -15 -9 -15 -25z"/>
<path d="M4000 1130 c0 -11 5 -20 10 -20 6 0 10 9 10 20 0 11 -4 20 -10 20 -5
0 -10 -9 -10 -20z"/>
<path d="M8670 1136 c0 -22 11 -46 21 -46 5 0 9 14 9 30 0 20 -5 30 -15 30 -8
0 -15 -6 -15 -14z"/>
<path d="M5670 1129 c0 -11 24 -39 34 -39 3 0 6 11 6 25 0 18 -5 25 -20 25
-11 0 -20 -5 -20 -11z"/>
<path d="M8670 1040 c0 -11 7 -20 15 -20 8 0 15 9 15 20 0 11 -7 20 -15 20 -8
0 -15 -9 -15 -20z"/>
<path d="M5670 1025 c0 -14 2 -25 4 -25 2 0 11 -3 20 -6 13 -5 16 1 16 25 0
24 -4 31 -20 31 -15 0 -20 -7 -20 -25z"/>
<path d="M6340 1025 c0 -16 6 -25 15 -25 9 0 15 9 15 25 0 16 -6 25 -15 25 -9
0 -15 -9 -15 -25z"/>
<path d="M4000 1020 c0 -11 5 -20 10 -20 6 0 10 9 10 20 0 11 -4 20 -10 20 -5
0 -10 -9 -10 -20z"/>
<path d="M6345 760 l7 -199 -283 -3 c-156 -2 -301 -1 -322 1 l-39 3 2 122 c4
244 2 266 -20 266 -19 0 -20 -7 -20 -170 0 -107 4 -170 10 -170 6 0 10 -11 10
-25 0 -18 -7 -26 -27 -31 -14 -4 -380 -4 -812 -1 -432 4 -794 7 -803 7 -17 0
-18 16 -18 195 0 172 -2 195 -16 195 -14 0 -16 -21 -13 -194 l4 -194 -50 -6
c-27 -3 -503 -6 -1057 -6 -824 0 -1008 -2 -1008 -13 0 -11 487 -13 2748 -10
5900 6 5602 4 5602 20 0 13 -91 14 -682 11 -376 -2 -718 -2 -760 0 l-78 4 0
174 c0 109 -4 174 -10 174 -5 0 -10 11 -10 25 0 14 -4 25 -10 25 -10 0 -14
-110 -10 -297 l2 -103 -524 0 c-287 0 -629 -3 -758 -6 -129 -4 -409 -3 -622 1
l-388 7 0 89 c0 53 -4 89 -10 89 -6 0 -10 43 -10 110 0 94 -2 110 -16 110 -14
0 -15 -20 -9 -200z"/>
<path d="M890 830 c0 -31 -9 -37 -27 -19 -13 13 -55 8 -60 -8 -2 -6 8 -13 24
-16 l28 -4 -28 -2 c-19 -1 -31 -9 -39 -27 -16 -34 2 -45 67 -40 28 2 56 5 63
5 20 2 16 127 -4 135 -23 9 -24 8 -24 -24z m-3 -87 c-3 -10 -5 -4 -5 12 0 17
2 24 5 18 2 -7 2 -21 0 -30z m-40 1 c-3 -3 -12 -4 -19 -1 -8 3 -5 6 6 6 11 1
17 -2 13 -5z"/>
<path d="M10700 835 c0 -8 9 -15 20 -15 11 0 20 7 20 15 0 8 -9 15 -20 15 -11
0 -20 -7 -20 -15z"/>
<path d="M10650 821 c0 -5 -21 -11 -47 -13 -42 -3 -48 -6 -51 -27 -6 -41 17
-72 52 -69 39 4 46 26 9 30 -19 2 -29 9 -31 24 -3 17 2 20 32 20 32 -1 35 -4
40 -38 6 -36 7 -37 46 -35 25 1 40 6 40 14 0 17 10 16 31 -3 13 -12 26 -14 46
-9 15 4 39 8 53 9 21 1 25 5 22 27 -1 17 3 29 13 33 11 4 15 -2 15 -25 0 -17
6 -32 15 -36 24 -8 28 1 20 47 l-7 41 -56 0 c-32 0 -73 0 -92 0 -19 -1 -50 -1
-67 -1 -32 0 -33 -1 -33 -43 -1 -32 -3 -38 -10 -25 -6 9 -9 31 -8 49 2 25 -1
34 -14 37 -10 2 -18 -1 -18 -7z m170 -49 c0 -24 -8 -32 -26 -25 -17 6 -18 30
-1 36 22 9 27 7 27 -11z"/>
<path d="M426 811 c-3 -5 -5 -28 -4 -50 1 -32 5 -41 17 -39 10 2 16 14 16 32
1 16 6 31 13 34 7 2 12 -5 12 -16 0 -11 6 -23 13 -25 10 -4 10 -6 0 -6 -7 -1
-13 -5 -13 -10 0 -4 27 -9 60 -9 59 -1 82 12 38 21 -17 3 -15 5 8 6 20 0 34
-5 38 -14 6 -16 45 -19 108 -9 33 6 37 9 32 29 -4 16 0 26 13 33 33 19 3 32
-44 19 -38 -10 -43 -14 -43 -40 0 -22 -4 -28 -16 -23 -9 3 -18 6 -20 6 -2 0
-4 11 -4 25 0 17 -5 25 -18 25 -10 0 -23 5 -29 11 -22 22 -57 6 -70 -31 -8
-25 -12 -29 -12 -13 -2 42 -12 53 -51 53 -22 0 -41 -4 -44 -9z"/>
<path d="M10453 813 c-23 -9 -14 -23 15 -24 l27 -1 -30 -7 c-35 -7 -46 -38
-19 -58 21 -15 104 -18 104 -3 0 6 -7 13 -15 16 -18 7 -20 40 -2 47 8 3 6 10
-8 21 -20 15 -48 19 -72 9z"/>
<path d="M1491 613 c-15 -38 7 -136 32 -141 19 -4 24 24 5 30 -7 3 -12 25 -12
58 0 33 5 55 12 58 19 6 14 22 -7 22 -11 0 -23 -11 -30 -27z"/>
<path d="M1640 627 c0 -1 4 -17 9 -34 7 -24 5 -43 -6 -73 -18 -44 -11 -63 13
-38 31 31 30 148 -1 148 -8 0 -15 -1 -15 -3z"/>
<path d="M1555 563 c12 -98 46 -117 40 -23 -4 67 -9 80 -32 80 -13 0 -14 -9
-8 -57z"/>
<path d="M860 590 c0 -25 -25 -36 -45 -20 -8 6 -23 9 -35 5 -15 -5 -20 -15
-20 -41 0 -19 -4 -34 -10 -34 -5 0 -10 -4 -10 -10 0 -5 9 -10 19 -10 15 0 21
8 23 33 2 17 8 32 13 32 6 0 11 -15 13 -32 2 -25 8 -33 23 -33 15 0 19 8 20
38 l2 37 6 -40 c4 -25 12 -41 22 -43 13 -2 15 7 13 55 -3 84 -3 83 -19 83 -8
0 -15 -9 -15 -20z"/>
<path d="M10668 593 c-2 -10 -2 -39 0 -65 4 -43 7 -48 28 -48 13 0 24 5 24 10
0 6 -4 10 -10 10 -5 0 -10 11 -10 25 0 14 5 25 10 25 6 0 10 7 10 15 0 8 -4
15 -10 15 -5 0 -10 7 -10 15 0 21 -27 19 -32 -2z"/>
<path d="M10936 601 c-7 -11 4 -105 14 -121 5 -7 14 -11 22 -8 12 5 15 45 9
126 -1 14 -37 17 -45 3z"/>
<path d="M11010 595 c0 -8 5 -15 10 -15 6 0 10 7 10 15 0 8 -4 15 -10 15 -5 0
-10 -7 -10 -15z"/>
<path d="M11130 595 c0 -8 5 -15 10 -15 6 0 10 -11 10 -25 0 -14 -4 -25 -9
-25 -5 0 -12 -8 -14 -17 -3 -10 -5 -4 -6 14 -1 36 -29 58 -61 48 -29 -9 -25
-23 8 -28 25 -4 25 -4 -5 -6 -23 -1 -33 3 -33 14 0 8 -7 15 -15 15 -11 0 -15
-12 -15 -44 0 -46 16 -69 31 -45 6 10 9 11 9 2 0 -16 76 -18 85 -3 4 6 15 8
26 5 17 -6 19 -1 19 59 0 59 -2 66 -20 66 -11 0 -20 -7 -20 -15z"/>
<path d="M1393 585 c-17 -19 -16 -25 4 -25 14 0 13 -4 -7 -24 -32 -35 -21 -56
30 -56 33 0 40 3 40 20 0 14 -7 20 -22 20 l-22 0 22 20 c26 24 28 40 7 40 -8
0 -15 5 -15 10 0 15 -23 12 -37 -5z"/>
<path d="M445 564 c-10 -10 -15 -29 -13 -48 3 -28 7 -31 41 -34 21 -2 37 1 37
7 0 6 -11 11 -25 11 -14 0 -25 5 -25 10 0 6 13 10 29 10 38 0 48 16 25 41 -21
23 -47 24 -69 3z"/>
<path d="M650 560 c-21 -21 -25 -46 -12 -68 11 -17 64 -20 69 -4 3 6 -2 12
-11 12 -9 0 -16 5 -16 10 0 6 11 10 25 10 30 0 33 20 7 43 -24 22 -38 21 -62
-3z"/>
<path d="M937 574 c-14 -15 -6 -46 13 -51 11 -3 20 -9 20 -14 0 -5 -9 -9 -20
-9 -11 0 -20 -4 -20 -9 0 -16 20 -23 46 -17 34 9 35 62 2 69 l-23 4 23 2 c14
0 22 6 20 14 -5 13 -50 22 -61 11z"/>
<path d="M10467 563 c-3 -10 -5 -39 -6 -65 0 -36 3 -48 14 -48 8 0 15 6 15 14
0 9 12 16 33 18 26 2 33 8 35 30 5 44 -14 68 -53 68 -24 0 -35 -5 -38 -17z
m53 -25 c0 -7 -4 -19 -9 -26 -7 -11 -10 -10 -15 3 -10 26 -7 35 9 35 8 0 15
-6 15 -12z"/>
<path d="M10574 566 c-3 -8 -4 -29 -2 -48 3 -31 5 -33 43 -33 34 0 40 3 43 24
2 12 1 34 -2 47 -5 20 -13 24 -42 24 -20 0 -37 -6 -40 -14z m59 -31 c-4 -15
-36 -12 -41 3 -3 9 3 13 19 10 13 -1 23 -7 22 -13z"/>
<path d="M10736 564 c-14 -37 -6 -74 18 -86 26 -11 56 -5 56 12 0 5 -11 10
-25 10 -14 0 -25 5 -25 10 0 6 14 10 30 10 25 0 30 4 30 24 0 36 -71 53 -84
20z"/>
<path d="M10843 573 c-19 -7 -17 -93 2 -93 10 0 15 11 15 35 0 28 4 35 20 35
17 0 20 -7 20 -41 0 -28 4 -39 13 -37 14 5 17 53 6 86 -8 21 -43 29 -76 15z"/>
<path d="M11185 559 c-8 -23 7 -39 38 -39 9 0 17 -4 17 -10 0 -5 -12 -10 -26
-10 -33 0 -27 -24 7 -28 36 -4 67 32 51 58 -7 11 -12 27 -12 35 0 10 -10 15
-34 15 -27 0 -36 -5 -41 -21z"/>
<path d="M595 550 c-6 -18 -8 -18 -21 -5 -9 8 -20 15 -25 15 -12 0 -12 -27 1
-35 6 -3 10 -15 10 -26 0 -24 38 -26 46 -1 3 9 10 25 15 35 10 18 4 37 -11 37
-5 0 -12 -9 -15 -20z"/>
<path d="M6347 471 c-2 -10 -2 -41 1 -70 4 -48 6 -51 32 -51 25 0 27 -3 26
-36 -1 -22 4 -39 12 -41 7 -3 12 5 12 22 0 23 19 55 34 55 2 0 6 -17 8 -37 5
-58 28 -54 28 5 0 45 -2 50 -25 56 -14 4 -30 4 -36 1 -5 -4 -23 -4 -39 0 -23
5 -30 12 -30 31 0 13 5 24 10 24 15 0 12 29 -4 46 -19 18 -23 18 -29 -5z"/>
<path d="M4006 464 c-4 -9 -3 -38 0 -65 6 -43 9 -49 30 -49 27 0 32 17 9 26
-17 7 -21 34 -5 34 17 0 12 57 -6 64 -21 8 -21 8 -28 -10z"/>
<path d="M5670 421 c0 -45 4 -60 16 -65 9 -3 19 -4 22 -2 6 3 7 81 3 119 -1 4
-10 7 -21 7 -18 0 -20 -7 -20 -59z"/>
<path d="M8675 458 c-3 -13 -2 -41 2 -63 7 -30 14 -41 31 -43 25 -4 31 25 7
34 -17 7 -21 44 -5 44 6 0 10 11 10 25 0 33 -37 35 -45 3z"/>
<path d="M4270 390 c0 -17 5 -19 25 -14 19 5 25 2 25 -10 0 -9 -11 -26 -25
-38 -14 -12 -25 -30 -25 -40 0 -14 8 -18 40 -18 29 0 40 4 40 15 0 8 -6 15
-14 15 -13 0 -13 4 0 28 28 55 15 82 -42 82 -17 0 -24 -6 -24 -20z"/>
<path d="M5926 402 c-3 -4 -2 -34 1 -65 5 -47 9 -57 25 -57 17 0 19 7 16 62
-2 49 -7 63 -20 66 -9 2 -19 -1 -22 -6z"/>
<path d="M8913 394 c-4 -10 -2 -19 5 -22 7 -2 12 -24 12 -53 0 -38 4 -49 15
-49 25 0 17 133 -8 138 -9 2 -20 -4 -24 -14z"/>
<path d="M4070 325 c0 -33 4 -45 15 -45 9 0 15 10 15 26 0 33 33 30 38 -4 5
-36 31 -27 30 11 -1 44 -14 57 -59 57 l-39 0 0 -45z"/>
<path d="M5730 356 c0 -7 3 -28 6 -45 7 -35 24 -42 24 -10 0 11 6 27 14 34 12
12 15 12 20 -1 3 -9 6 -27 6 -41 0 -37 24 -23 28 16 2 18 -2 39 -9 47 -15 19
-89 19 -89 0z"/>
<path d="M8740 320 c0 -38 4 -50 15 -50 10 0 15 10 15 30 0 23 4 30 20 30 16
0 20 -7 20 -30 0 -20 5 -30 15 -30 8 0 15 7 15 16 0 13 3 14 14 5 11 -9 20
-10 35 -1 24 12 28 40 7 40 -8 0 -17 6 -20 13 -5 10 -7 10 -12 0 -9 -19 -22
-16 -29 7 -5 16 -15 20 -51 20 l-44 0 0 -50z"/>
<path d="M4180 315 c0 -11 11 -15 40 -15 43 0 54 14 18 24 -38 10 -58 7 -58
-9z"/>
<path d="M5840 316 c0 -12 11 -16 41 -16 52 0 48 24 -4 28 -28 2 -37 -1 -37
-12z"/>
</g>
</svg>
